# Blender 5.0.1
# www.blender.org
mtllib main_wall_03_t.mtl
o main_wall_03_t
v 14.808091 18.160679 11.360452
v -7.951253 18.160679 11.360452
v 11.459762 -1.873618 11.360452
v 13.809793 -1.881650 11.360452
v -7.928599 -1.470850 11.360452
v 14.808091 -1.615843 11.360452
v -7.951253 -1.470283 11.360452
vn -0.0000 -0.0000 1.0000
vt 0.375000 0.750000
vt 0.597680 0.750000
vt 0.597686 0.750249
vt 0.603239 0.971768
vt 0.603327 0.989034
vt 0.592235 1.000000
vt 0.375000 1.000000
s 0
f 2/1/1 7/2/1 5/3/1 3/4/1 4/5/1 6/6/1 1/7/1
