# Blender 5.0.1
# www.blender.org
mtllib spawn_wall_03.mtl
usemtl Material
o spawn_wall_03
v 7.276908 -4.615363 4.048654
v 7.276908 -4.615363 6.048654
v 7.276908 -2.615363 6.048654
v 7.276908 -2.615363 4.048654
v 7.276908 -1.893149 6.048654
v 7.276908 -1.893149 4.048654
v 7.276908 -2.615363 2.368373
v 7.276908 -4.615363 2.368373
v 7.276908 -1.893149 2.368373
vn -1.0000 -0.0000 -0.0000
vt 0.625000 0.250000
vt 0.375000 0.000000
vt 0.625000 0.000000
vt 0.375000 0.250000
s 0
f 4/1/1 6/1/1 9/1/1 7/1/1
f 2/2/1 3/3/1 4/1/1 1/4/1
f 4/1/1 3/3/1 5/3/1 6/1/1
f 1/4/1 4/1/1 7/1/1 8/4/1
