# Blender 5.0.1
# www.blender.org
mtllib spawn_wall_02.mtl
usemtl Material
o spawn_wall_02
v 13.026691 -2.615363 2.368373
v 13.026691 -4.615363 2.368373
v 11.026691 -2.615363 2.368373
v 11.026691 -4.615363 2.368373
v 7.276908 -2.615363 2.368373
v 7.276908 -4.615363 2.368373
v 11.026691 -1.893149 2.368373
v 13.026691 -1.893149 2.368373
v 7.276908 -1.893149 2.368373
v 14.874306 -2.615363 2.368373
v 14.874306 -4.615363 2.368373
v 14.874306 -1.893149 2.368373
vn -0.0000 -0.0000 -1.0000
vt 0.625000 0.250000
vt 0.375000 0.250000
vt 0.625000 0.500000
vt 0.375000 0.500000
s 0
f 3/1/1 4/2/1 6/2/1 5/1/1
f 4/2/1 3/1/1 1/3/1 2/4/1
f 1/3/1 3/1/1 7/1/1 8/3/1
f 3/1/1 5/1/1 9/1/1 7/1/1
f 2/4/1 1/3/1 10/3/1 11/4/1
f 1/3/1 8/3/1 12/3/1 10/3/1
