# Blender 5.0.1
# www.blender.org
mtllib spawn_floor.mtl
usemtl Material
o spawn_floor
v 11.026691 -4.615363 6.048654
v 11.026691 -4.615363 4.048654
v 13.026691 -4.615363 6.048654
v 13.026691 -4.615363 4.048654
v 14.874306 -4.615363 6.048654
v 11.026691 -4.615363 11.340432
v 13.026691 -4.615363 11.340432
v 7.276908 -4.615363 4.048654
v 7.276908 -4.615363 6.048654
v 14.874306 -4.615363 4.048654
v 11.026691 -4.615363 2.368373
v 13.026691 -4.615363 2.368373
v 7.276908 -4.615363 2.368373
v 13.026691 -4.615363 4.048654
v 13.026691 -4.615363 6.048654
v 13.026691 -4.615363 11.340432
v 13.026691 -4.615363 2.368373
v 14.874306 -4.615363 11.340432
v 14.874306 -4.615363 2.368373
vn -0.0000 -1.0000 -0.0000
vt 0.125000 0.500000
vt 0.375000 0.500000
vt 0.375000 0.750000
vt 0.125000 0.750000
s 0
f 2/1/1 8/1/1 13/1/1 11/1/1
f 2/1/1 4/2/1 3/3/1 1/4/1
f 1/4/1 3/3/1 7/3/1 6/4/1
f 2/1/1 1/4/1 9/4/1 8/1/1
f 4/2/1 2/1/1 11/1/1 12/2/1
f 15/3/1 14/2/1 10/2/1 5/3/1
f 16/3/1 15/3/1 5/3/1 18/3/1
f 14/2/1 17/2/1 19/2/1 10/2/1
