# Blender 5.0.1
# www.blender.org
mtllib spawn_wall_01.mtl
usemtl Material
o spawn_wall_01
v 14.874306 -2.615363 6.048654
v 14.874306 -4.615363 6.048654
v 14.874306 -4.615363 4.048654
v 14.874306 -2.615363 4.048654
v 14.874306 -2.615363 11.340432
v 14.874306 -4.615363 11.340432
v 14.874306 -2.615363 2.368373
v 14.874306 -1.893149 4.048654
v 14.874306 -1.893149 6.048654
v 14.874306 -1.893149 11.340432
v 14.874306 -4.615363 2.368373
v 14.874306 -1.893149 2.368373
vn 1.0000 -0.0000 -0.0000
vt 0.375000 0.500000
vt 0.625000 0.500000
vt 0.625000 0.750000
vt 0.375000 0.750000
s 0
f 3/1/1 4/2/1 1/3/1 2/4/1
f 2/4/1 1/3/1 5/3/1 6/4/1
f 1/3/1 4/2/1 8/2/1 9/3/1
f 5/3/1 1/3/1 9/3/1 10/3/1
f 4/2/1 3/1/1 11/1/1 7/2/1
f 8/2/1 4/2/1 7/2/1 12/2/1
