# Blender 3.6.2
# www.blender.org
mtllib wall5.mtl
o wall_5
v 4.648798 13.739927 -8.271645
v 4.648798 13.739927 -8.121186
v 19.074202 13.739929 -8.271644
v 19.074202 13.739929 -8.121185
v 4.648800 -6.260072 -8.271645
v 4.648800 -6.260072 -8.121186
v 19.074203 -6.260070 -8.271644
v 19.074203 -6.260070 -8.121185
vn -0.0000 1.0000 -0.0000
vn 1.0000 -0.0000 -0.0000
vn -0.0000 -1.0000 -0.0000
vn -1.0000 -0.0000 -0.0000
vn -0.0000 -0.0000 -1.0000
vn -0.0000 -0.0000 1.0000
vt -1.484797 -7.439190
vt 2.484797 -7.439190
vt 2.484797 -3.469595
vt -1.484797 -3.469595
vt 2.484797 0.500000
vt -1.484797 0.500000
vt 2.484797 4.469594
vt -1.484797 4.469594
vt 2.484797 8.439189
vt -1.484797 8.439189
vt -5.454392 0.500000
vt -5.454392 4.469594
vt 6.454392 0.500000
vt 6.454392 4.469594
s 0
usemtl metal_wall
f 1/1/1 2/2/1 4/3/1 3/4/1
f 3/4/2 4/3/2 8/5/2 7/6/2
f 7/6/3 8/5/3 6/7/3 5/8/3
f 5/8/4 6/7/4 2/9/4 1/10/4
f 3/11/5 7/6/5 5/8/5 1/12/5
f 8/5/6 4/13/6 2/14/6 6/7/6
