# Blender 3.6.2
# www.blender.org
mtllib wall3.mtl
o wall_3
v -1.714007 -0.938059 1.449963
v -1.714007 -0.787601 1.449963
v -1.714007 -0.938059 -8.164166
v -1.714007 -0.787601 -8.164166
v 4.627421 -0.938059 1.449963
v 4.627421 -0.787601 1.449963
v 4.627421 -0.938059 -8.164166
v 4.627421 -0.787601 -8.164166
vn -1.0000 -0.0000 -0.0000
vn -0.0000 -0.0000 -1.0000
vn 1.0000 -0.0000 -0.0000
vn -0.0000 -0.0000 1.0000
vn -0.0000 -1.0000 -0.0000
vn -0.0000 1.0000 -0.0000
vt -1.858972 -8.935889
vt 2.858972 -8.935889
vt 2.858972 -4.217945
vt -1.858972 -4.217945
vt 2.858972 0.500000
vt -1.858972 0.500000
vt -1.858973 0.500000
vt 2.858972 5.217945
vt -1.909471 5.168506
vt -1.858972 5.217945
vt 2.858972 9.935889
vt -1.858972 9.935889
vt -6.576917 0.500000
vt -6.576917 5.217945
vt 7.576917 0.500000
vt 7.576917 5.217945
s 0
usemtl floor
f 1/1/1 2/2/1 4/3/1 3/4/1
f 3/4/2 4/3/2 8/5/2 7/6/2
f 7/7/3 8/5/3 6/8/3 5/9/3
f 5/10/4 6/8/4 2/11/4 1/12/4
f 3/13/5 7/6/5 5/10/5 1/14/5
f 8/5/6 4/15/6 2/16/6 6/8/6
