# Blender 3.6.2
# www.blender.org
mtllib wall6_p.mtl
o wall_6_p
v -1.812900 13.137305 1.449963
v -1.812900 13.287763 1.449963
v -1.812900 13.137305 -8.164166
v -1.812900 13.287763 -8.164166
v 9.725271 13.137305 1.449963
v 9.725271 13.287763 1.449963
v 9.725271 13.137305 -8.164166
v 9.725271 13.287763 -8.164166
vn -1.0000 -0.0000 -0.0000
vn -0.0000 -0.0000 -1.0000
vn 1.0000 -0.0000 -0.0000
vn -0.0000 -0.0000 1.0000
vn -0.0000 -1.0000 -0.0000
vn -0.0000 1.0000 -0.0000
vt -0.861681 -4.946724
vt 1.861681 -4.946724
vt 1.861681 -2.223362
vt -0.861681 -2.223362
vt 1.861681 0.500000
vt -0.861681 0.500000
vt 1.861681 3.223362
vt -0.861681 3.223362
vt 1.861681 5.946724
vt -0.861681 5.946724
vt -3.585043 0.500000
vt -3.585043 3.223362
vt 4.585043 0.500000
vt 4.585043 3.223362
s 0
usemtl white_wall
f 1/1/1 2/2/1 4/3/1 3/4/1
f 3/4/2 4/3/2 8/5/2 7/6/2
f 7/6/3 8/5/3 6/7/3 5/8/3
f 5/8/4 6/7/4 2/9/4 1/10/4
f 3/11/5 7/6/5 5/8/5 1/12/5
f 8/5/6 4/13/6 2/14/6 6/7/6
