# Blender 3.6.2
# www.blender.org
mtllib wall1.mtl
o wall_1
v -1.762884 13.662359 1.430949
v -1.612426 13.662359 1.430949
v -1.762884 13.662359 -8.183181
v -1.612426 13.662359 -8.183181
v -1.762885 -6.337640 1.430949
v -1.612427 -6.337640 1.430949
v -1.762885 -6.337640 -8.183181
v -1.612427 -6.337640 -8.183181
vn -0.0000 1.0000 -0.0000
vn -0.0000 -0.0000 -1.0000
vn -0.0000 -1.0000 -0.0000
vn -0.0000 -0.0000 1.0000
vn -1.0000 -0.0000 -0.0000
vn 1.0000 -0.0000 -0.0000
vt -0.293900 -2.675602
vt 1.293900 -2.675602
vt 1.293900 -1.087801
vt -0.293900 -1.087801
vt 1.293900 0.500000
vt -0.293900 0.500000
vt 1.293900 2.087801
vt -0.293900 2.087801
vt 1.293900 3.675602
vt -0.293900 3.675602
vt -1.881701 0.500000
vt -1.881701 2.087801
vt 2.881701 0.500000
vt 2.881701 2.087801
s 0
usemtl white_wall
f 1/1/1 2/2/1 4/3/1 3/4/1
f 3/4/2 4/3/2 8/5/2 7/6/2
f 7/6/3 8/5/3 6/7/3 5/8/3
f 5/8/4 6/7/4 2/9/4 1/10/4
f 3/11/5 7/6/5 5/8/5 1/12/5
f 8/5/6 4/13/6 2/14/6 6/7/6
