# Blender 3.6.2
# www.blender.org
mtllib wall4_p.mtl
o wall_4_p
v -1.839551 13.739929 -8.229531
v -1.839551 13.739929 -8.079074
v 4.646677 13.739929 -8.229531
v 4.646677 13.739929 -8.079074
v -1.839549 -6.260071 -8.229531
v -1.839549 -6.260071 -8.079074
v 4.646678 -6.260071 -8.229531
v 4.646678 -6.260071 -8.079074
vn -0.0000 1.0000 -0.0000
vn 1.0000 -0.0000 -0.0000
vn -0.0000 -1.0000 -0.0000
vn -1.0000 -0.0000 -0.0000
vn -0.0000 -0.0000 -1.0000
vn -0.0000 -0.0000 1.0000
vt -0.631923 -4.027691
vt 1.631923 -4.027691
vt 1.631923 -1.763845
vt -0.631923 -1.763845
vt 1.631923 0.500000
vt -0.631923 0.500000
vt 1.631923 2.763845
vt -0.631923 2.763845
vt 1.631923 5.027691
vt -0.631923 5.027691
vt -2.895768 0.500000
vt -2.895768 2.763845
vt 3.895768 0.500000
vt 3.895768 2.763845
s 0
usemtl white_wall
f 1/1/1 2/2/1 4/3/1 3/4/1
f 3/4/2 4/3/2 8/5/2 7/6/2
f 7/6/3 8/5/3 6/7/3 5/8/3
f 5/8/4 6/7/4 2/9/4 1/10/4
f 3/11/5 7/6/5 5/8/5 1/12/5
f 8/5/6 4/13/6 2/14/6 6/7/6
