# Blender 3.6.2
# www.blender.org
mtllib wall12_p.mtl
o wall_12_p
v 4.475964 -6.486909 1.430949
v 4.626421 -6.486909 1.430949
v 4.475964 -6.486909 -8.183181
v 4.626421 -6.486909 -8.183181
v 4.475964 -0.804794 1.430949
v 4.626422 -0.804794 1.430949
v 4.475964 -0.804794 -8.183181
v 4.626422 -0.804794 -8.183181
vn -0.0000 -1.0000 -0.0000
vn -0.0000 -0.0000 -1.0000
vn -0.0000 1.0000 -0.0000
vn -0.0000 -0.0000 1.0000
vn -1.0000 -0.0000 -0.0000
vn 1.0000 -0.0000 -0.0000
vt -1.154844 -6.119377
vt 2.154844 -6.119377
vt 2.154844 -2.809689
vt -1.154844 -2.809689
vt 2.154844 0.500000
vt -1.154844 0.500000
vt 2.154844 3.809689
vt -1.154844 3.809689
vt 2.154844 7.119377
vt -1.154844 7.119377
vt -4.464533 0.500000
vt -4.464533 3.809689
vt 5.464533 0.500000
vt 5.464533 3.809689
s 0
usemtl white_wall
f 1/1/1 3/4/1 4/3/1 2/2/1
f 3/4/2 7/6/2 8/5/2 4/3/2
f 7/6/3 5/8/3 6/7/3 8/5/3
f 5/8/4 1/10/4 2/9/4 6/7/4
f 3/11/5 1/12/5 5/8/5 7/6/5
f 8/5/6 6/7/6 2/14/6 4/13/6
