# Blender 3.6.2
# www.blender.org
mtllib wall9.mtl
o wall_9
v 11.589614 5.202566 1.449963
v 11.589614 5.353024 1.449963
v 11.589614 5.202566 -8.164166
v 11.589614 5.353024 -8.164166
v 18.277687 5.202566 1.449963
v 18.277687 5.353024 1.449963
v 18.277687 5.202566 -8.164166
v 18.277687 5.353024 -8.164166
vn -1.0000 -0.0000 -0.0000
vn -0.0000 -0.0000 -1.0000
vn 1.0000 -0.0000 -0.0000
vn -0.0000 -0.0000 1.0000
vn -0.0000 -1.0000 -0.0000
vn -0.0000 1.0000 -0.0000
vt -1.760050 -8.540196
vt 2.760050 -8.540196
vt 2.760050 -4.020099
vt -1.760050 -4.020099
vt 2.760050 0.500000
vt -1.760050 0.500000
vt 2.760050 5.020099
vt -1.760050 5.020099
vt 2.760050 9.540198
vt -1.760050 9.540198
vt -6.280149 0.500000
vt -6.280149 5.020099
vt 7.280149 0.500000
vt 7.280149 5.020099
s 0
usemtl floor
f 1/1/1 2/2/1 4/3/1 3/4/1
f 3/4/2 4/3/2 8/5/2 7/6/2
f 7/6/3 8/5/3 6/7/3 5/8/3
f 5/8/4 6/7/4 2/9/4 1/10/4
f 3/11/5 7/6/5 5/8/5 1/12/5
f 8/5/6 4/13/6 2/14/6 6/7/6
