# Blender 3.6.2
# www.blender.org
mtllib wall10.mtl
o wall_10
v 11.551860 -6.474104 1.430949
v 11.702318 -6.474104 1.430949
v 11.551860 -6.474104 -8.183181
v 11.702318 -6.474104 -8.183181
v 11.551861 5.354655 1.430949
v 11.702319 5.354655 1.430949
v 11.551861 5.354655 -8.183181
v 11.702319 5.354655 -8.183181
vn -0.0000 -1.0000 -0.0000
vn -0.0000 -0.0000 -1.0000
vn -0.0000 1.0000 -0.0000
vn -0.0000 -0.0000 1.0000
vn -1.0000 -0.0000 -0.0000
vn 1.0000 -0.0000 -0.0000
vt -0.894009 -5.076036
vt 1.894009 -5.076036
vt 1.894009 -2.288018
vt -0.894009 -2.288018
vt 1.894009 0.500000
vt -0.894009 0.500000
vt 1.894009 3.288018
vt -0.894009 3.288018
vt 1.894009 6.076036
vt -0.894009 6.076036
vt -3.682027 0.500000
vt -3.682027 3.288018
vt 4.682027 0.500000
vt 4.682027 3.288018
s 0
usemtl white_wall
f 1/1/1 3/4/1 4/3/1 2/2/1
f 3/4/2 7/6/2 8/5/2 4/3/2
f 7/6/3 5/8/3 6/7/3 8/5/3
f 5/8/4 1/10/4 2/9/4 6/7/4
f 3/11/5 1/12/5 5/8/5 7/6/5
f 8/5/6 6/7/6 2/14/6 4/13/6
